screens;
 
http://imgcum.com/img-5086f1198a31e.html
 
http://imgcum.com/img-5086f1429e412.html

Video
ID                                       : 1
Format                                   : AVC
Format/Info                              : Advanced Video Codec
Format profile                           : High@L4.1
Format settings, CABAC                   : Yes
Format settings, ReFrames                : 5 frames
Codec ID                                 : avc1
Codec ID/Info                            : Advanced Video Coding
Duration                                 : 25mn 31s
Bit rate                                 : 12.0 Mbps
Width                                    : 1 920 pixels
Height                                   : 1 080 pixels
Display aspect ratio                     : 16:9
Frame rate mode                          : Variable
Frame rate                               : 29.970 fps
Minimum frame rate                       : 29.940 fps
Maximum frame rate                       : 29.970 fps
Color space                              : YUV
Chroma subsampling                       : 4:2:0
Bit depth                                : 8 bits
Scan type                                : Progressive
Bits/(Pixel*Frame)                       : 0.193
Stream size                              : 2.14 GiB (95%)
Writing library                          : x264 core 125 r2208 d9d2288
Encoding settings                        : cabac=1 / ref=5 / deblock=1:0:0 / 

Audio
ID                                       : 2
Format                                   : AAC
Format/Info                              : Advanced Audio Codec
Format profile                           : LC
Codec ID                                 : 40
Duration                                 : 25mn 31s
Bit rate mode                            : Constant
Bit rate                                 : 128 Kbps
Channel(s)                               : 2 channels
Channel positions                        : Front: L R
Sampling rate                            : 48.0 KHz
Compression mode                         : Lossy
Stream size                              : 23.4 MiB (1%)
Tagged date                              : UTC 2012-10-18 00:57:19